# xmcd
# Copyright (C) 1995-1998 Ti Kan
#
# Track frame offsets:
#       150
#       15700
#       30088
#       41645
#       52820
#       66056
#       75722
#       91746
#       107535
#       116180
#       129802
#       140608
#       148719
#       164864
#       178936
#       189723
#       199967
#       219507
#       233174
#       257307
#       274449
#       289899
#       308082
#       321096
#       337580
#       351129
#
# Disc length: 4810 seconds
#
# Revision: 0
# Processed by: cddbd v1.5.2PL0 Copyright (c) Steve Scherf et al.
# Submitted via: CD-Transfer v1.0
#
DISCID=7a12c81a
DTITLE=Various Ska 3 - 
DYEAR=1900
DGENRE=
TTITLE0=Boy's Don't Cry
TTITLE1=Black Night
TTITLE2=Tears Of A Clown
TTITLE3=Dancing In The Street
TTITLE4=Don't Worry, Be Happy
TTITLE5=American Pie
TTITLE6=Mustang Sally
TTITLE7=Guns Of Brixton
TTITLE8=Hare Tonic
TTITLE9=Brown Eyed Girl
TTITLE10=Supercalifragilisticexpialidocius
TTITLE11=Paranoid
TTITLE12=Come On Eileen
TTITLE13=1969
TTITLE14=The Good, The Bad And The Ugly
TTITLE15=James Bond Theme
TTITLE16=Hotel California
TTITLE17=Ymca
TTITLE18=Straight To Hell
TTITLE19=Wanted Dead Or Alive
TTITLE20=Land Down Under
TTITLE21=Sweet Home Town Jamaica
TTITLE22=Red, Red Wine
TTITLE23=Master Of Puppets
TTITLE24=La Cucaracha
TTITLE25=Paint It Black
EXTD=
EXTT0=
EXTT1=
EXTT2=
EXTT3=
EXTT4=
EXTT5=
EXTT6=
EXTT7=
EXTT8=
EXTT9=
EXTT10=
EXTT11=
EXTT12=
EXTT13=
EXTT14=
EXTT15=
EXTT16=
EXTT17=
EXTT18=
EXTT19=
EXTT20=
EXTT21=
EXTT22=
EXTT23=
EXTT24=
EXTT25=
PLAYORDER=
